<?xml version="1.0" encoding="UTF-8"?>
<svg xmlns="http://www.w3.org/2000/svg" xmlns:xlink="http://www.w3.org/1999/xlink"
     width="525" height="537" viewBox="-262.5 -268.5 525 537">
<defs>
</defs>
<path d="M-116.66666666666667,-202.072594216369 L116.66666666666667,-202.072594216369" stroke="black" />
<path d="M-140.0,-161.6580753730952 L140.0,-161.6580753730952" stroke="black" />
<path d="M-163.33333333333334,-121.24355652982139 L163.33333333333334,-121.24355652982139" stroke="black" />
<path d="M-186.66666666666666,-80.82903768654758 L186.66666666666666,-80.82903768654758" stroke="black" />
<path d="M-210.0,-40.41451884327378 L210.0,-40.41451884327378" stroke="black" />
<path d="M-233.33333333333334,1.5158245029548804e-14 L233.33333333333334,1.5158245029548804e-14" stroke="black" />
<path d="M-116.66666666666667,202.07259421636903 L-233.33333333333334,1.5158245029548804e-14" stroke="black" />
<path d="M-70.0,202.07259421636903 L-210.0,-40.41451884327378" stroke="black" />
<path d="M-23.333333333333332,202.07259421636903 L-186.66666666666666,-80.82903768654758" stroke="black" />
<path d="M23.333333333333332,202.07259421636903 L-163.33333333333334,-121.24355652982139" stroke="black" />
<path d="M70.0,202.07259421636903 L-140.0,-161.6580753730952" stroke="black" />
<path d="M116.66666666666667,202.07259421636903 L-116.66666666666667,-202.072594216369" stroke="black" />
<path d="M233.33333333333334,1.5158245029548804e-14 L116.66666666666667,202.07259421636903" stroke="black" />
<path d="M210.0,-40.41451884327378 L70.0,202.07259421636903" stroke="black" />
<path d="M186.66666666666666,-80.82903768654758 L23.333333333333332,202.07259421636903" stroke="black" />
<path d="M163.33333333333334,-121.24355652982139 L-23.333333333333332,202.07259421636903" stroke="black" />
<path d="M140.0,-161.6580753730952 L-70.0,202.07259421636903" stroke="black" />
<path d="M116.66666666666667,-202.072594216369 L-116.66666666666667,202.07259421636903" stroke="black" />
<path d="M116.66666666666667,202.07259421636903 L-116.66666666666667,202.07259421636903" stroke="black" />
<path d="M140.0,161.6580753730952 L-140.0,161.6580753730952" stroke="black" />
<path d="M163.33333333333334,121.24355652982142 L-163.33333333333334,121.24355652982142" stroke="black" />
<path d="M186.66666666666666,80.82903768654761 L-186.66666666666666,80.82903768654761" stroke="black" />
<path d="M210.0,40.41451884327382 L-210.0,40.41451884327382" stroke="black" />
<path d="M233.33333333333334,-0.0 L-233.33333333333334,-0.0" stroke="black" />
<path d="M116.66666666666667,-202.07259421636903 L233.33333333333334,-0.0" stroke="black" />
<path d="M70.0,-202.07259421636903 L210.0,40.41451884327382" stroke="black" />
<path d="M23.333333333333332,-202.07259421636903 L186.66666666666666,80.82903768654761" stroke="black" />
<path d="M-23.333333333333332,-202.07259421636903 L163.33333333333334,121.24355652982142" stroke="black" />
<path d="M-70.0,-202.07259421636903 L140.0,161.6580753730952" stroke="black" />
<path d="M-116.66666666666667,-202.07259421636903 L116.66666666666667,202.07259421636903" stroke="black" />
<path d="M-233.33333333333334,-0.0 L-116.66666666666667,-202.07259421636903" stroke="black" />
<path d="M-210.0,40.41451884327382 L-70.0,-202.07259421636903" stroke="black" />
<path d="M-186.66666666666666,80.82903768654761 L-23.333333333333332,-202.07259421636903" stroke="black" />
<path d="M-163.33333333333334,121.24355652982142 L23.333333333333332,-202.07259421636903" stroke="black" />
<path d="M-140.0,161.6580753730952 L70.0,-202.07259421636903" stroke="black" />
<path d="M-116.66666666666667,202.07259421636903 L116.66666666666667,-202.07259421636903" stroke="black" />
<text x="-50" y="250" font-size="12" dy="0em">Exemple avec n = 5</text>
</svg>