<?xml version="1.0" encoding="UTF-8"?>
<svg xmlns="http://www.w3.org/2000/svg" xmlns:xlink="http://www.w3.org/1999/xlink"
     width="200" height="200" viewBox="-100.0 -100.0 200 200">
<defs>
</defs>
<path d="M-16.666666666666668,-69.33756729740644 L16.666666666666668,-69.33756729740644" stroke="black" />
<path d="M-33.333333333333336,-40.47005383792515 L33.333333333333336,-40.47005383792515" stroke="black" />
<path d="M-50.0,-11.602540378443868 L50.0,-11.602540378443868" stroke="black" />
<path d="M-66.66666666666667,17.264973081037425 L66.66666666666667,17.264973081037425" stroke="black" />
<path d="M-83.33333333333333,46.13248654051872 L83.33333333333333,46.13248654051872" stroke="black" />
<path d="M-100.0,75.0 L100.0,75.0" stroke="black" />
<path d="M-66.66666666666667,75.0 L-83.33333333333333,46.13248654051872" stroke="black" />
<path d="M-33.333333333333336,75.0 L-66.66666666666667,17.264973081037425" stroke="black" />
<path d="M0.0,75.0 L-50.0,-11.602540378443868" stroke="black" />
<path d="M33.333333333333336,75.0 L-33.333333333333336,-40.47005383792515" stroke="black" />
<path d="M66.66666666666667,75.0 L-16.666666666666668,-69.33756729740644" stroke="black" />
<path d="M100.0,75.0 L0.0,-98.20508075688774" stroke="black" />
<path d="M83.33333333333333,46.13248654051872 L66.66666666666667,75.0" stroke="black" />
<path d="M66.66666666666667,17.264973081037425 L33.333333333333336,75.0" stroke="black" />
<path d="M50.0,-11.602540378443868 L0.0,75.0" stroke="black" />
<path d="M33.333333333333336,-40.47005383792515 L-33.333333333333336,75.0" stroke="black" />
<path d="M16.666666666666668,-69.33756729740644 L-66.66666666666667,75.0" stroke="black" />
<path d="M0.0,-98.20508075688774 L-100.0,75.0" stroke="black" />
<text x="-60" y="100" font-size="12" dy="0em">Exemple avec n = 6</text>
</svg>