<?xml version="1.0" encoding="UTF-8" standalone="no"?>
<!DOCTYPE svg PUBLIC "-//W3C//DTD SVG 1.1//EN" "http://www.w3.org/Graphics/SVG/1.1/DTD/svg11.dtd">
<!-- Generated by graphviz version 2.40.1 (20161225.0304)
 -->
<!-- Title: finite_state_machine Pages: 1 -->
<svg width="332pt" height="62pt" viewBox="0.00 0.00 332.00 62.00" xmlns="http://www.w3.org/2000/svg" xmlns:xlink="http://www.w3.org/1999/xlink">
<g id="graph0" class="graph" transform="scale(1 1) rotate(0) translate(4 58)">
<title>finite_state_machine</title>
<polygon fill="#ffffff" stroke="transparent" points="-4,4 -4,-58 328,-58 328,4 -4,4"/>
<!-- 0 -->
<g id="node1" class="node">
<title>0</title>
<ellipse fill="none" stroke="#000000" cx="18" cy="-18" rx="18" ry="18"/>
<text text-anchor="middle" x="18" y="-13.8" font-family="Times,serif" font-size="14.00" fill="#000000">0</text>
</g>
<!-- 0&#45;&gt;0 -->
<g id="edge1" class="edge">
<title>0-&gt;0</title>
<path fill="none" stroke="#000000" d="M6.2435,-32.0417C1.8468,-42.9126 5.7656,-54 18,-54 26.4111,-54 30.8919,-48.7595 31.4422,-41.9516"/>
<polygon fill="#000000" stroke="#000000" points="34.884,-41.3132 29.7565,-32.0417 27.9831,-42.4871 34.884,-41.3132"/>
</g>
<!-- 1 -->
<g id="node2" class="node">
<title>1</title>
<ellipse fill="none" stroke="#000000" cx="90" cy="-18" rx="18" ry="18"/>
<text text-anchor="middle" x="90" y="-13.8" font-family="Times,serif" font-size="14.00" fill="#000000">1</text>
</g>
<!-- 0&#45;&gt;1 -->
<g id="edge2" class="edge">
<title>0-&gt;1</title>
<path fill="none" stroke="#000000" d="M35.063,-12.1601C43.1928,-11.2975 53.1239,-11.0481 62.2953,-11.4119"/>
<polygon fill="#000000" stroke="#000000" points="62.342,-14.9233 72.5593,-12.1206 62.8242,-7.94 62.342,-14.9233"/>
</g>
<!-- 1&#45;&gt;0 -->
<g id="edge3" class="edge">
<title>1-&gt;0</title>
<path fill="none" stroke="#000000" d="M72.5593,-23.8794C64.3745,-24.7231 54.428,-24.9536 45.2807,-24.5709"/>
<polygon fill="#000000" stroke="#000000" points="45.2873,-21.0625 35.063,-23.8399 44.7877,-28.0446 45.2873,-21.0625"/>
</g>
<!-- 1&#45;&gt;1 -->
<g id="edge4" class="edge">
<title>1-&gt;1</title>
<path fill="none" stroke="#000000" d="M78.2435,-32.0417C73.8468,-42.9126 77.7656,-54 90,-54 98.4111,-54 102.8919,-48.7595 103.4422,-41.9516"/>
<polygon fill="#000000" stroke="#000000" points="106.884,-41.3132 101.7565,-32.0417 99.9831,-42.4871 106.884,-41.3132"/>
</g>
<!-- 2 -->
<g id="node3" class="node">
<title>2</title>
<ellipse fill="none" stroke="#000000" cx="162" cy="-18" rx="18" ry="18"/>
<text text-anchor="middle" x="162" y="-13.8" font-family="Times,serif" font-size="14.00" fill="#000000">2</text>
</g>
<!-- 1&#45;&gt;2 -->
<g id="edge5" class="edge">
<title>1-&gt;2</title>
<path fill="none" stroke="#000000" d="M107.063,-12.1601C115.1928,-11.2975 125.1239,-11.0481 134.2953,-11.4119"/>
<polygon fill="#000000" stroke="#000000" points="134.342,-14.9233 144.5593,-12.1206 134.8242,-7.94 134.342,-14.9233"/>
</g>
<!-- 2&#45;&gt;1 -->
<g id="edge6" class="edge">
<title>2-&gt;1</title>
<path fill="none" stroke="#000000" d="M144.5593,-23.8794C136.3745,-24.7231 126.428,-24.9536 117.2807,-24.5709"/>
<polygon fill="#000000" stroke="#000000" points="117.2873,-21.0625 107.063,-23.8399 116.7877,-28.0446 117.2873,-21.0625"/>
</g>
<!-- 2&#45;&gt;2 -->
<g id="edge7" class="edge">
<title>2-&gt;2</title>
<path fill="none" stroke="#000000" d="M150.2435,-32.0417C145.8468,-42.9126 149.7656,-54 162,-54 170.4111,-54 174.8919,-48.7595 175.4422,-41.9516"/>
<polygon fill="#000000" stroke="#000000" points="178.884,-41.3132 173.7565,-32.0417 171.9831,-42.4871 178.884,-41.3132"/>
</g>
<!-- 3 -->
<g id="node4" class="node">
<title>3</title>
<ellipse fill="none" stroke="#000000" cx="234" cy="-18" rx="18" ry="18"/>
<text text-anchor="middle" x="234" y="-13.8" font-family="Times,serif" font-size="14.00" fill="#000000">3</text>
</g>
<!-- 2&#45;&gt;3 -->
<g id="edge8" class="edge">
<title>2-&gt;3</title>
<path fill="none" stroke="#000000" d="M179.063,-12.1601C187.1928,-11.2975 197.1239,-11.0481 206.2953,-11.4119"/>
<polygon fill="#000000" stroke="#000000" points="206.342,-14.9233 216.5593,-12.1206 206.8242,-7.94 206.342,-14.9233"/>
</g>
<!-- 3&#45;&gt;2 -->
<g id="edge9" class="edge">
<title>3-&gt;2</title>
<path fill="none" stroke="#000000" d="M216.5593,-23.8794C208.3745,-24.7231 198.428,-24.9536 189.2807,-24.5709"/>
<polygon fill="#000000" stroke="#000000" points="189.2873,-21.0625 179.063,-23.8399 188.7877,-28.0446 189.2873,-21.0625"/>
</g>
<!-- 3&#45;&gt;3 -->
<g id="edge10" class="edge">
<title>3-&gt;3</title>
<path fill="none" stroke="#000000" d="M222.2435,-32.0417C217.8468,-42.9126 221.7656,-54 234,-54 242.4111,-54 246.8919,-48.7595 247.4422,-41.9516"/>
<polygon fill="#000000" stroke="#000000" points="250.884,-41.3132 245.7565,-32.0417 243.9831,-42.4871 250.884,-41.3132"/>
</g>
<!-- 4 -->
<g id="node5" class="node">
<title>4</title>
<ellipse fill="none" stroke="#000000" cx="306" cy="-18" rx="18" ry="18"/>
<text text-anchor="middle" x="306" y="-13.8" font-family="Times,serif" font-size="14.00" fill="#000000">4</text>
</g>
<!-- 3&#45;&gt;4 -->
<g id="edge11" class="edge">
<title>3-&gt;4</title>
<path fill="none" stroke="#000000" d="M251.063,-12.1601C259.1928,-11.2975 269.1239,-11.0481 278.2953,-11.4119"/>
<polygon fill="#000000" stroke="#000000" points="278.342,-14.9233 288.5593,-12.1206 278.8242,-7.94 278.342,-14.9233"/>
</g>
<!-- 4&#45;&gt;3 -->
<g id="edge12" class="edge">
<title>4-&gt;3</title>
<path fill="none" stroke="#000000" d="M288.5593,-23.8794C280.3745,-24.7231 270.428,-24.9536 261.2807,-24.5709"/>
<polygon fill="#000000" stroke="#000000" points="261.2873,-21.0625 251.063,-23.8399 260.7877,-28.0446 261.2873,-21.0625"/>
</g>
<!-- 4&#45;&gt;4 -->
<g id="edge13" class="edge">
<title>4-&gt;4</title>
<path fill="none" stroke="#000000" d="M294.2435,-32.0417C289.8468,-42.9126 293.7656,-54 306,-54 314.4111,-54 318.8919,-48.7595 319.4422,-41.9516"/>
<polygon fill="#000000" stroke="#000000" points="322.884,-41.3132 317.7565,-32.0417 315.9831,-42.4871 322.884,-41.3132"/>
</g>
</g>
</svg>