<?xml version="1.0" encoding="UTF-8"?>
<svg xmlns="http://www.w3.org/2000/svg" xmlns:xlink="http://www.w3.org/1999/xlink"
     width="600" height="500" viewBox="-300.0 -250.0 600 500">
<defs>
</defs>
<path d="M0.0,-230.9401076758503 L0.0,-230.9401076758503" stroke="black" />
<path d="M-22.22222222222222,-192.45008972987523 L22.22222222222222,-192.45008972987523" stroke="black" />
<path d="M-44.44444444444444,-153.96007178390016 L44.44444444444444,-153.96007178390016" stroke="black" />
<path d="M-66.66666666666667,-115.47005383792515 L66.66666666666667,-115.47005383792515" stroke="black" />
<path d="M-88.88888888888889,-76.98003589195011 L88.88888888888889,-76.98003589195011" stroke="black" />
<path d="M-111.11111111111111,-38.49001794597504 L111.11111111111111,-38.49001794597504" stroke="black" />
<path d="M-133.33333333333334,1.2631870857957336e-14 L133.33333333333334,1.2631870857957336e-14" stroke="black" />
<path d="M-155.55555555555554,38.490017945975055 L155.55555555555554,38.490017945975055" stroke="black" />
<path d="M-177.77777777777777,76.98003589195011 L177.77777777777777,76.98003589195011" stroke="black" />
<path d="M-200.0,115.47005383792515 L200.0,115.47005383792515" stroke="black" />
<path d="M-200.0,115.47005383792515 L-200.0,115.47005383792515" stroke="black" />
<path d="M-155.55555555555554,115.47005383792515 L-177.77777777777777,76.98003589195011" stroke="black" />
<path d="M-111.11111111111111,115.47005383792515 L-155.55555555555554,38.490017945975055" stroke="black" />
<path d="M-66.66666666666667,115.47005383792515 L-133.33333333333334,1.2631870857957336e-14" stroke="black" />
<path d="M-22.22222222222222,115.47005383792515 L-111.11111111111111,-38.49001794597504" stroke="black" />
<path d="M22.22222222222222,115.47005383792515 L-88.88888888888889,-76.98003589195011" stroke="black" />
<path d="M66.66666666666667,115.47005383792515 L-66.66666666666667,-115.47005383792515" stroke="black" />
<path d="M111.11111111111111,115.47005383792515 L-44.44444444444444,-153.96007178390016" stroke="black" />
<path d="M155.55555555555554,115.47005383792515 L-22.22222222222222,-192.45008972987523" stroke="black" />
<path d="M200.0,115.47005383792515 L0.0,-230.9401076758503" stroke="black" />
<path d="M200.0,115.47005383792515 L200.0,115.47005383792515" stroke="black" />
<path d="M177.77777777777777,76.98003589195011 L155.55555555555554,115.47005383792515" stroke="black" />
<path d="M155.55555555555554,38.490017945975055 L111.11111111111111,115.47005383792515" stroke="black" />
<path d="M133.33333333333334,1.2631870857957336e-14 L66.66666666666667,115.47005383792515" stroke="black" />
<path d="M111.11111111111111,-38.49001794597504 L22.22222222222222,115.47005383792515" stroke="black" />
<path d="M88.88888888888889,-76.98003589195011 L-22.22222222222222,115.47005383792515" stroke="black" />
<path d="M66.66666666666667,-115.47005383792515 L-66.66666666666667,115.47005383792515" stroke="black" />
<path d="M44.44444444444444,-153.96007178390016 L-111.11111111111111,115.47005383792515" stroke="black" />
<path d="M22.22222222222222,-192.45008972987523 L-155.55555555555554,115.47005383792515" stroke="black" />
<path d="M0.0,-230.9401076758503 L-200.0,115.47005383792515" stroke="black" />
<path d="M0.0,230.9401076758503 L0.0,230.9401076758503" stroke="black" />
<path d="M22.22222222222222,192.45008972987526 L-22.22222222222222,192.45008972987526" stroke="black" />
<path d="M44.44444444444444,153.9600717839002 L-44.44444444444444,153.9600717839002" stroke="black" />
<path d="M66.66666666666667,115.47005383792515 L-66.66666666666667,115.47005383792515" stroke="black" />
<path d="M88.88888888888889,76.98003589195011 L-88.88888888888889,76.98003589195011" stroke="black" />
<path d="M111.11111111111111,38.490017945975055 L-111.11111111111111,38.490017945975055" stroke="black" />
<path d="M133.33333333333334,-0.0 L-133.33333333333334,-0.0" stroke="black" />
<path d="M155.55555555555554,-38.49001794597505 L-155.55555555555554,-38.49001794597505" stroke="black" />
<path d="M177.77777777777777,-76.98003589195011 L-177.77777777777777,-76.98003589195011" stroke="black" />
<path d="M200.0,-115.47005383792515 L-200.0,-115.47005383792515" stroke="black" />
<path d="M200.0,-115.47005383792515 L200.0,-115.47005383792515" stroke="black" />
<path d="M155.55555555555554,-115.47005383792515 L177.77777777777777,-76.98003589195011" stroke="black" />
<path d="M111.11111111111111,-115.47005383792515 L155.55555555555554,-38.49001794597505" stroke="black" />
<path d="M66.66666666666667,-115.47005383792515 L133.33333333333334,-0.0" stroke="black" />
<path d="M22.22222222222222,-115.47005383792515 L111.11111111111111,38.490017945975055" stroke="black" />
<path d="M-22.22222222222222,-115.47005383792515 L88.88888888888889,76.98003589195011" stroke="black" />
<path d="M-66.66666666666667,-115.47005383792515 L66.66666666666667,115.47005383792515" stroke="black" />
<path d="M-111.11111111111111,-115.47005383792515 L44.44444444444444,153.9600717839002" stroke="black" />
<path d="M-155.55555555555554,-115.47005383792515 L22.22222222222222,192.45008972987526" stroke="black" />
<path d="M-200.0,-115.47005383792515 L0.0,230.9401076758503" stroke="black" />
<path d="M-200.0,-115.47005383792515 L-200.0,-115.47005383792515" stroke="black" />
<path d="M-177.77777777777777,-76.98003589195011 L-155.55555555555554,-115.47005383792515" stroke="black" />
<path d="M-155.55555555555554,-38.49001794597505 L-111.11111111111111,-115.47005383792515" stroke="black" />
<path d="M-133.33333333333334,-0.0 L-66.66666666666667,-115.47005383792515" stroke="black" />
<path d="M-111.11111111111111,38.490017945975055 L-22.22222222222222,-115.47005383792515" stroke="black" />
<path d="M-88.88888888888889,76.98003589195011 L22.22222222222222,-115.47005383792515" stroke="black" />
<path d="M-66.66666666666667,115.47005383792515 L66.66666666666667,-115.47005383792515" stroke="black" />
<path d="M-44.44444444444444,153.9600717839002 L111.11111111111111,-115.47005383792515" stroke="black" />
<path d="M-22.22222222222222,192.45008972987526 L155.55555555555554,-115.47005383792515" stroke="black" />
<path d="M0.0,230.9401076758503 L200.0,-115.47005383792515" stroke="black" />
<text x="100" y="200" font-size="12" dy="0em">Exemple avec n = 3</text>
</svg>